<svg xmlns="http://www.w3.org/2000/svg" width="438" height="465"><g id="Layer_1"><path d="M369.431 115.814c-65.835 5.619-106.244 46.621-103.629 80.367.908 11.674 7.699 21.566 18.499 28.472.015.029.032.085.043.114a.169.169 0 0 1 .008.05l.065.203c1.715 1.755 3.231 5.2 4.371 8.393 0-.003-.006-.005-.006-.008a22.486 22.486 0 0 0-3.202-5.259c-.127-.155-.257-.302-.381-.452a22.086 22.086 0 0 0-1.659-1.72c-.178-.169-.353-.344-.542-.508a21.328 21.328 0 0 0-2.359-1.834c-.79-.53-1.588-.993-2.387-1.4-.267-.14-.53-.245-.797-.372a22.05 22.05 0 0 0-1.567-.688c-.318-.118-.638-.22-.953-.321a17.7 17.7 0 0 0-1.377-.424c-.339-.093-.672-.164-1.013-.237a22.139 22.139 0 0 0-2.302-.379 25.637 25.637 0 0 0-1.122-.089 18.88 18.88 0 0 0-2.069-.034c-.378.011-.753.022-1.117.047-.268.02-.519.051-.781.082-.404.043-.816.079-1.208.141h-.006c-.257.01-.493-.005-.767.012-2.334.161-5.718 1.462-9.358 3.38-.006-.694-.051-2.765-.263-5.834.215.073.429.137.635.217l-.584-5.251h-.477c-.725-7.126-2.209-16.901-5.266-27.091-2.454-9.202-4.734-12.92-5.926-14.352-.174-.32-.351-.679-.526-.982l-.092.335c-.154-.134-.249-.188-.249-.188l-.365.511c.222-.546.318-1.167.276-1.86.262-.575.379-.986.379-.986s-.066.202-.445.514a6.536 6.536 0 0 0-.346-1.25 6.168 6.168 0 0 0-.193-.467 8.49 8.49 0 0 0-.356-.716 14.35 14.35 0 0 0-.537-.884c-.098-.144-.187-.282-.294-.425a17.807 17.807 0 0 0-1.006-1.271c-.087-.097-.181-.198-.267-.297-.442-.49-.92-.992-1.473-1.519a39.993 39.993 0 0 0-1.644-1.481l.156-.009c-.22-1.168-.463-2.403-.72-3.674a49.784 49.784 0 0 0-.169-.838c-.165-.802-.332-1.614-.508-2.445-1.957-9.336-4.545-20.34-6.365-27.872.348.036.547.051.547.051l-2.407-8.27c.177 0 .344-.016.52-.019.865 0 1.693-.047 2.535-.08.969-.038 1.944-.068 2.88-.141.813-.067 1.592-.168 2.38-.262.903-.108 1.805-.209 2.675-.353.761-.126 1.489-.281 2.224-.434.838-.174 1.67-.354 2.476-.558a47.115 47.115 0 0 0 2.062-.599 47.141 47.141 0 0 0 2.27-.752 43.85 43.85 0 0 0 1.886-.758c.71-.3 1.405-.609 2.074-.94.59-.291 1.159-.593 1.715-.909.646-.356 1.269-.73 1.874-1.119a35.97 35.97 0 0 0 1.543-1.048c.57-.418 1.129-.85 1.662-1.294a32.81 32.81 0 0 0 1.362-1.18c.508-.473.99-.964 1.456-1.464.407-.426.81-.857 1.182-1.301a30.61 30.61 0 0 0 1.247-1.626c.342-.467.683-.929.996-1.415.372-.581.702-1.182 1.038-1.787.274-.501.559-.995.804-1.511.308-.633.564-1.295.821-1.957.209-.526.438-1.045.621-1.587.232-.695.409-1.421.604-2.14.14-.543.307-1.076.423-1.628.161-.774.265-1.58.378-2.381.076-.533.18-1.058.231-1.605.088-.898.113-1.831.136-2.761.016-.476.062-.935.056-1.419a43.37 43.37 0 0 0-.234-4.362c-2.477-24.335-7.942-44.196-49.658-60.588C175.854.652 157.477 31.44 157.477 31.44s-14.402-19.367-54.626.498C68.08 49.109 72.557 68.19 72.557 68.19S47.729 65.213 31.34 80.608c-16.391 15.393-29.302 39.728-9.933 73 19.364 33.272 34.266 17.877 39.728 22.346.153.127.313.299.486.515.053.063.11.16.163.23.121.169.246.334.374.543.066.1.137.235.203.345.127.219.254.428.388.677.066.127.138.279.209.415.139.27.279.539.424.841.07.149.147.314.218.471.151.321.301.645.457 1 .073.161.144.336.217.502.165.381.327.765.501 1.18l.197.491c.182.442.365.895.552 1.365.061.164.125.329.187.491.196.508.395 1.022.599 1.56.047.137.103.276.15.415.222.583.442 1.176.662 1.79.04.11.079.227.121.334a536.75 536.75 0 0 1 .792 2.232c.263.749.526 1.509.793 2.288.003.018.011.034.015.052a531.798 531.798 0 0 1 4.346 13.374c-.086.114-.138.178-.138.178l.168-.082c3.828 12.284 7.466 25.03 9.373 31.836.033.109.06.208.088.315.114.404.218.785.322 1.146.09.333.185.666.265.954l-2.276-6.055.009-.801s-.169-.169-.482-.462l-.23-.616s-1.133-.79-2.745-1.811c-4.692-3.414-13.656-8.193-23.659-4.514-3.718 1.089-7.536 3.182-10.77 7.025-1.425.705-3.453 2.655-3.824 8.047-.039.507.01 1.009.082 1.517.292 5.011 4.398 9.073 8.062 11.726a44.23 44.23 0 0 0 1.925 1.376c-7.397-3.419-21.158-6.082-24.942 9.294-.792 3.215-.287 5.795 1.05 7.88.975 2.135 2.831 4.101 6.24 5.241.652.218 1.372.381 2.07.57 6.405 2.373 14.624 2.917 19.941 2.987-3.143.376-7.131 1.417-10.55 4.043-5.565 3.683-9.354 9.929-7.379 19.809.008.039.026.079.035.115.21 2.941 1.083 5.759 3.173 7.759 2.247 2.15 5.665 3.928 9.946 5.265 2.567.843 5.401 1.475 8.441 1.887 6.927 1.03 15.121 1.197 23.984.271.283.361.578.72.908 1.069a76.978 76.978 0 0 1 2.16 2.367c.263.299.515.61.773.909.433.519.875 1.024 1.295 1.542.285.354.553.704.831 1.053.377.48.762.959 1.126 1.434.279.366.543.733.815 1.096.346.469.698.938 1.031 1.398.249.35.486.693.73 1.043.334.475.671.951.988 1.417.224.321.429.641.645.962.319.473.638.945.934 1.407.2.306.382.599.57.892.296.463.597.925.87 1.371.169.265.323.519.485.785.214.352.43.702.634 1.044-.322.341-3.479 3.842-7.364 10.055-.109.174-.217.333-.33.507a5.945 5.945 0 0 1-.179.308 89.842 89.842 0 0 0-3.813 6.824c-.487.96-.969 1.984-1.454 3.011-.075.166-.152.318-.229.488a105.822 105.822 0 0 0-9.055 31.796c-.093.646-.214 1.247-.3 1.901-2.933 22.241 2.584 37.588 15.995 46.535 11.933 8.791 27.684 10.794 37.955 9.414.43.014.828.043 1.264.049 0 0 .116 0 .287.004 1.62.226 3.3.393 5.017.492 2.36.225 4.773.231 7.318-.035a56.933 56.933 0 0 0 3.906-.372c19.457-.045 52.662-.654 80.549-3.752 42.392-4.711 76.676-24.071 76.676-24.071s-4.364-32.061-7.242-43.611c.488.152 1.811.312 4.767.403 3.806.539 9.908 1.143 16 .725 6.13-.251 11.943-1.374 14.73-4.362.095-.101.197-.251.296-.383 1.399-1.146 2.542-2.539 3.309-4.244 1.933-3.157 1.882-6.043 1.862-6.41 2.664-11.346 5.426-30.422 7.288-44.604a859.876 859.876 0 0 0 2.404-18.017c2.155.494 3.819.779 5.139.72 1.79-.012 3.443-.494 3.779-2.158.084-.427.07-.949 0-1.513.222-.883.279-1.958.051-3.34-.717-4.314-2.427-6.207-3.64-7.86a5.874 5.874 0 0 1-.169-.378c-.367-1.208-.63-2.333-.669-3.278.011-.283.028-.571.062-.856a8.87 8.87 0 0 1 .592-1.658c.469-.872 1.135-1.955 1.91-3.197.342-.494.683-.994 1.031-1.501 1.994-2.347 4.116-4.864 4.434-8.515.314-.905.568-1.855.717-2.905.336-1.473.508-2.935.387-4.363-.024-1.968-.364-4.158-1.154-6.703-2.212-7.07-6.247-10.365-10.118-11.905.077-.068.144-.13.218-.209.208-.203.44-.434.693-.683.172-.164.362-.35.556-.536l.872-.835c.187-.183.375-.361.575-.558.432-.412.907-.864 1.395-1.323.228-.215.468-.444.708-.669.521-.492 1.077-1.007 1.65-1.552.245-.226.505-.46.753-.695l1.498-1.371c.291-.264.577-.53.878-.8a264.04 264.04 0 0 1 1.921-1.733c.308-.27.615-.547.934-.829.725-.646 1.469-1.298 2.229-1.964.296-.254.604-.513.9-.773.708-.61 1.419-1.219 2.147-1.836.285-.24.569-.483.86-.726.508-.428 1.025-.851 1.538-1.278a150.353 150.353 0 0 0 18.465-8.557c60.641-33.247 48.306-107.864-17.531-102.254" fill="#303053"/><path d="M369.431 115.814c-65.835 5.619-106.244 46.621-103.629 80.367.908 11.674 7.699 21.566 18.499 28.472.015.029.032.085.043.114a.169.169 0 0 1 .008.05l.065.203c1.715 1.755 3.231 5.2 4.371 8.393 0-.003-.006-.005-.006-.008a22.486 22.486 0 0 0-3.202-5.259c-.127-.155-.257-.302-.381-.452a22.086 22.086 0 0 0-1.659-1.72c-.178-.169-.353-.344-.542-.508a21.328 21.328 0 0 0-2.359-1.834c-.79-.53-1.588-.993-2.387-1.4-.267-.14-.53-.245-.797-.372a22.05 22.05 0 0 0-1.567-.688c-.318-.118-.638-.22-.953-.321a17.7 17.7 0 0 0-1.377-.424c-.339-.093-.672-.164-1.013-.237a22.139 22.139 0 0 0-2.302-.379 25.637 25.637 0 0 0-1.122-.089 18.88 18.88 0 0 0-2.069-.034c-.378.011-.753.022-1.117.047-.268.02-.519.051-.781.082-.404.043-.816.079-1.208.141h-.006c-.257.01-.493-.005-.767.012-2.334.161-5.718 1.462-9.358 3.38-.006-.694-.051-2.765-.263-5.834.215.073.429.137.635.217l-.584-5.251h-.477c-.725-7.126-2.209-16.901-5.266-27.091-2.454-9.202-4.734-12.92-5.926-14.352-.174-.32-.351-.679-.526-.982l-.092.335c-.154-.134-.249-.188-.249-.188l-.365.511c.222-.546.318-1.167.276-1.86.262-.575.379-.986.379-.986s-.066.202-.445.514a6.536 6.536 0 0 0-.346-1.25 6.168 6.168 0 0 0-.193-.467 8.49 8.49 0 0 0-.356-.716 14.35 14.35 0 0 0-.537-.884c-.098-.144-.187-.282-.294-.425a17.807 17.807 0 0 0-1.006-1.271c-.087-.097-.181-.198-.267-.297-.442-.49-.92-.992-1.473-1.519a39.993 39.993 0 0 0-1.644-1.481l.156-.009c-.22-1.168-.463-2.403-.72-3.674a49.784 49.784 0 0 0-.169-.838c-.165-.802-.332-1.614-.508-2.445-1.957-9.336-4.545-20.34-6.365-27.872.348.036.547.051.547.051l-2.407-8.27c.177 0 .344-.016.52-.019.865 0 1.693-.047 2.535-.08.969-.038 1.944-.068 2.88-.141.813-.067 1.592-.168 2.38-.262.903-.108 1.805-.209 2.675-.353.761-.126 1.489-.281 2.224-.434.838-.174 1.67-.354 2.476-.558a47.115 47.115 0 0 0 2.062-.599 47.141 47.141 0 0 0 2.27-.752 43.85 43.85 0 0 0 1.886-.758c.71-.3 1.405-.609 2.074-.94.59-.291 1.159-.593 1.715-.909.646-.356 1.269-.73 1.874-1.119a35.97 35.97 0 0 0 1.543-1.048c.57-.418 1.129-.85 1.662-1.294a32.81 32.81 0 0 0 1.362-1.18c.508-.473.99-.964 1.456-1.464.407-.426.81-.857 1.182-1.301a30.61 30.61 0 0 0 1.247-1.626c.342-.467.683-.929.996-1.415.372-.581.702-1.182 1.038-1.787.274-.501.559-.995.804-1.511.308-.633.564-1.295.821-1.957.209-.526.438-1.045.621-1.587.232-.695.409-1.421.604-2.14.14-.543.307-1.076.423-1.628.161-.774.265-1.58.378-2.381.076-.533.18-1.058.231-1.605.088-.898.113-1.831.136-2.761.016-.476.062-.935.056-1.419a43.37 43.37 0 0 0-.234-4.362c-2.477-24.335-7.942-44.196-49.658-60.588C175.854.652 157.477 31.44 157.477 31.44s-14.402-19.367-54.626.498C68.08 49.109 72.557 68.19 72.557 68.19S47.729 65.213 31.34 80.608c-16.391 15.393-29.302 39.728-9.933 73 19.364 33.272 34.266 17.877 39.728 22.346.153.127.313.299.486.515.053.063.11.16.163.23.121.169.246.334.374.543.066.1.137.235.203.345.127.219.254.428.388.677.066.127.138.279.209.415.139.27.279.539.424.841.07.149.147.314.218.471.151.321.301.645.457 1 .073.161.144.336.217.502.165.381.327.765.501 1.18l.197.491c.182.442.365.895.552 1.365.061.164.125.329.187.491.196.508.395 1.022.599 1.56.047.137.103.276.15.415.222.583.442 1.176.662 1.79.04.11.079.227.121.334a536.75 536.75 0 0 1 .792 2.232c.263.749.526 1.509.793 2.288.003.018.011.034.015.052a531.798 531.798 0 0 1 4.346 13.374c-.086.114-.138.178-.138.178l.168-.082c3.828 12.284 7.466 25.03 9.373 31.836.033.109.06.208.088.315.114.404.218.785.322 1.146.09.333.185.666.265.954l-2.276-6.055.009-.801s-.169-.169-.482-.462l-.23-.616s-1.133-.79-2.745-1.811c-4.692-3.414-13.656-8.193-23.659-4.514-3.718 1.089-7.536 3.182-10.77 7.025-1.425.705-3.453 2.655-3.824 8.047-.039.507.01 1.009.082 1.517.292 5.011 4.398 9.073 8.062 11.726a44.23 44.23 0 0 0 1.925 1.376c-7.397-3.419-21.158-6.082-24.942 9.294-.792 3.215-.287 5.795 1.05 7.88.975 2.135 2.831 4.101 6.24 5.241.652.218 1.372.381 2.07.57 6.405 2.373 14.624 2.917 19.941 2.987-3.143.376-7.131 1.417-10.55 4.043-5.565 3.683-9.354 9.929-7.379 19.809.008.039.026.079.035.115.21 2.941 1.083 5.759 3.173 7.759 2.247 2.15 5.665 3.928 9.946 5.265 2.567.843 5.401 1.475 8.441 1.887 6.927 1.03 15.121 1.197 23.984.271.283.361.578.72.908 1.069a76.978 76.978 0 0 1 2.16 2.367c.263.299.515.61.773.909.433.519.875 1.024 1.295 1.542.285.354.553.704.831 1.053.377.48.762.959 1.126 1.434.279.366.543.733.815 1.096.346.469.698.938 1.031 1.398.249.35.486.693.73 1.043.334.475.671.951.988 1.417.224.321.429.641.645.962.319.473.638.945.934 1.407.2.306.382.599.57.892.296.463.597.925.87 1.371.169.265.323.519.485.785.214.352.43.702.634 1.044-.322.341-3.479 3.842-7.364 10.055-.109.174-.217.333-.33.507a5.945 5.945 0 0 1-.179.308 89.842 89.842 0 0 0-3.813 6.824c-.487.96-.969 1.984-1.454 3.011-.075.166-.152.318-.229.488a105.822 105.822 0 0 0-9.055 31.796c-.093.646-.214 1.247-.3 1.901-2.933 22.241 2.584 37.588 15.995 46.535 11.933 8.791 27.684 10.794 37.955 9.414.43.014.828.043 1.264.049 0 0 .116 0 .287.004 1.62.226 3.3.393 5.017.492 2.36.225 4.773.231 7.318-.035a56.933 56.933 0 0 0 3.906-.372c19.457-.045 52.662-.654 80.549-3.752 42.392-4.711 76.676-24.071 76.676-24.071s-4.364-32.061-7.242-43.611c.488.152 1.811.312 4.767.403 3.806.539 9.908 1.143 16 .725 6.13-.251 11.943-1.374 14.73-4.362.095-.101.197-.251.296-.383 1.399-1.146 2.542-2.539 3.309-4.244 1.933-3.157 1.882-6.043 1.862-6.41 2.664-11.346 5.426-30.422 7.288-44.604a859.876 859.876 0 0 0 2.404-18.017c2.155.494 3.819.779 5.139.72 1.79-.012 3.443-.494 3.779-2.158.084-.427.07-.949 0-1.513.222-.883.279-1.958.051-3.34-.717-4.314-2.427-6.207-3.64-7.86a5.874 5.874 0 0 1-.169-.378c-.367-1.208-.63-2.333-.669-3.278.011-.283.028-.571.062-.856a8.87 8.87 0 0 1 .592-1.658c.469-.872 1.135-1.955 1.91-3.197.342-.494.683-.994 1.031-1.501 1.994-2.347 4.116-4.864 4.434-8.515.314-.905.568-1.855.717-2.905.336-1.473.508-2.935.387-4.363-.024-1.968-.364-4.158-1.154-6.703-2.212-7.07-6.247-10.365-10.118-11.905.077-.068.144-.13.218-.209.208-.203.44-.434.693-.683.172-.164.362-.35.556-.536l.872-.835c.187-.183.375-.361.575-.558.432-.412.907-.864 1.395-1.323.228-.215.468-.444.708-.669.521-.492 1.077-1.007 1.65-1.552.245-.226.505-.46.753-.695l1.498-1.371c.291-.264.577-.53.878-.8a264.04 264.04 0 0 1 1.921-1.733c.308-.27.615-.547.934-.829.725-.646 1.469-1.298 2.229-1.964.296-.254.604-.513.9-.773.708-.61 1.419-1.219 2.147-1.836.285-.24.569-.483.86-.726.508-.428 1.025-.851 1.538-1.278a150.353 150.353 0 0 0 18.465-8.557c60.641-33.247 48.306-107.864-17.531-102.254z" fill-opacity="0" stroke="#303053" stroke-width="23.389"/><path d="M96.205 342.219s-17.792 16.75-22.766 54.425c-4.97 37.681 14.13 55.735 55.214 55.998 0 0 54.686 1.048 97.077-3.663 42.392-4.711 76.676-24.071 76.676-24.071s-4.452-32.71-7.327-43.962c0 0 28.257 4.966 35.582-2.883 7.327-7.848 15.172-73.788 15.172-73.788s8.115 2.618 8.905-1.308c.781-3.922-5.762-14.395-4.193-18.057 1.572-3.665 9.68-13.345 8.899-21.453-.785-8.114-8.637-16.225-11.514-17.794-2.878-1.568-56.999-5.183-56.999-5.183s-1.123 21.882-24.643 40.508c-26.432 20.929-49.196 32.97-66.206 34.014-17.007 1.05-103.877 27.217-103.877 27.217" fill="#FFFFFE"/><path d="M93.134 373.535s-7.386 2.339-8.553 5.056c-1.166 2.722-1.553 6.604-3.111 8.552-1.554 1.946-2.332 3.108-2.332 3.108s.778 26.049 12.052 35.774c11.276 9.716 13.082 19.258 25.272 22.937 12.191 3.68 19.828 6.221 32.27 2.72 12.44-3.498 13.605-16.719 13.605-16.719l3.112-6.608s-35.769 6.221-49.764-5.439c-13.997-11.663-21.773-13.615-22.551-49.381M273.882 292.243l71.951 12.032s10.512 3.171 8.956-6.161c-1.555-9.33-7.776-7.387-3.504-15.937 4.285-8.552 10.886-12.834 7.005-25.277-3.894-12.435-13.413-13.215-17.791-13.215-4.371 0-48.699-1.943-48.699-1.943s.782 9.33-5.82 20.214c-6.616 10.891-20.212 20.345-20.212 20.345s9.635 2.519 8.114 9.942" fill="#C7E7F1"/><path d="M154.995 349.275s-7.946.995-23.837-3.972c-15.894-4.966-19.866-18.372-19.369-23.344.498-4.959 8.939-4.959 8.939-4.959s-1.488-2.483-3.475-7.948c-1.683-4.624 8.741-10.673 11.973-12.422l136.018-13.901s2.982-1.487 6.455 3.476c3.475 4.963.999 8.94.999 8.94s3.475.994 4.466 7.449c.073.5.132.993.155 1.478 0 0-39.81 18.265-67.548 27.163-27.735 8.893-54.776 18.04-54.776 18.04" fill="#D8232A"/><path d="M215.583 312.028s-15.396 6.455-9.933 19.863c5.46 13.412 16.388 11.921 26.816 4.471 10.43-7.445 11.714-31.996-16.883-24.334" fill="#D8232A"/><path d="M237.929 329.413s2.482 14.399 32.285 7.944c29.799-6.457 37.741-37.246 37.741-37.246s-.991 1.49-11.423 5.959c-10.428 4.469-25.824-6.952-39.236-8.444-13.407-1.487-23.838 14.402-23.838 14.402l4.471 17.385" fill="#D8232A"/><path d="M225.33 117.016c29.156.103 44.255-16.285 41.897-39.39-2.477-24.335-7.942-44.196-49.658-60.588C175.854.652 157.477 31.44 157.477 31.44s-14.402-19.367-54.626.498C68.08 49.109 72.557 68.19 72.557 68.19S47.729 65.213 31.34 80.608c-16.391 15.393-29.302 39.728-9.933 73 19.364 33.272 34.266 17.877 39.728 22.346 5.462 4.469 22.844 68.039 22.844 68.039s3.475-7.947 11.026-17.528c7.55-9.581 33.667-32.632 33.667-32.632s29.079-19.16 52.414-24.612c16.512-3.86 40.353-8.224 44.358-8.609l9.508-.548c-2.662-14.192-8.494-37.895-9.707-42.797-.149-.585-1.47-.253.085-.251" fill="#FFFFFE"/><path d="M128.807 195.279s-1.46 28.575 2.915 42.863c4.376 14.29 8.456 20.412 8.162 22.745-.136 1.112-1.468 2.465-2.683 2.773-1.34.339-3.133 0-3.133 0s6.691 5.683 5.526 9.765c-1.166 4.082-4.957 3.501-7.872 2.04-2.915-1.456-9.331-4.08-15.452-13.994-6.125-9.914-5.475-14.495-5.475-14.495s-7.94.499-14.938 8.083c-7 7.58-2.334 21.283 6.414 28.573 8.746 7.291 16.888 9.304 27.395 6.549l-.567 6.573s-9.044 7.871-12.541 9.914c-3.498 2.04-18.66 13.412-35.282 14.287-16.62.877-41.986 3.208-45.487-14.287-3.5-17.498 11.081-23.614 21.577-24.201 0 0-37.49 2.128-32.949-16.329 4.666-18.954 24.494-10.498 28.867-6.997 0 0-20.704-9.917-11.663-23.039 9.04-13.119 24.254-9.925 27.493-8.893 3.984 1.275 11.174 6.269 11.174 6.269l3.612 9.621s6.125-13.12 16.621-23.614c10.496-10.502 27.411-26.829 28.286-24.206" fill="#EB8B2D"/><path d="M116.85 291.797s-4.665 12.541-33.822 14.58c-29.159 2.04-45.78-.877-44.904-13.124 0 0-5.835 14.877.873 21.289 6.706 6.413 23.618 9.621 43.738 7.29 20.12-2.339 33.823-15.164 33.823-15.164l12.541-9.914.567-6.573s-6.107 2.494-12.816 1.616" fill="#89492F"/><path d="M241.067 170.204s3.208 1.748 6.793 15.187c5.35 20.038 5.96 38.241 5.96 38.241s13.407-8.938 26.819 0c13.407 8.938 15.396 30.295-4.96 49.66-20.369 19.371-58.11 47.184-105.787 44.198-47.79-2.984-40.226-27.309-40.226-27.309s-16.883 7.944-31.782-11.427c-14.899-19.365 2.483-30.785 12.911-31.778 0 0 2.406 10.359 8.226 18.73 5.823 8.37 11.279 10.549 16.012 10.549 4.729 0 5.819-2.909 5.092-5.457-.73-2.545-5.488-7.577-5.488-7.577s4.957 1.461 5.247-2.334c.294-3.789-6.497-12.473-8.455-25.078-4.662-30.033-2.33-42.277-2.33-42.277s17.494-3.793 28.575-5.541c11.077-1.749 19.245-6.997 21.865-11.663 2.628-4.665 2.041-7.582 2.041-7.582s26.246-7.874 44.327-8.163c0 0-3.209 4.955 3.205 10.496 6.414 5.539 10.498 1.165 10.498 1.165l1.457-2.04" fill="#FADDB9"/><path d="M208.132 316.497s-23.34-6.452-35.757 4.469c-12.416 10.925-8.439 32.781-29.793 30.301 0 0 18.605 16.177 46.677 9.922 28.074-6.244 28.074-19.509 28.074-19.509l-9.201-25.183" fill="#D8232A"/><path d="M168.751 262.639s-18.075 1.456-22.451 8.165c-4.376 6.703-5.248 16.62 6.418 16.036 11.663-.581 49.861-28.87 16.033-24.201M247.58 244.465s18.053-1.795 22.302-8.58c4.245-6.785 4.94-16.71-6.709-15.915-11.655.796-49.325 29.781-15.593 24.495" fill="#F2B286"/><path d="M124.644 333.386c4.515-3.369 10.856-6.038 19.706-6.379 25.826-.996 22.846 11.423 21.851 17.881 0 0 9.932 1.487 11.421 11.914 1.494 10.433-2.976 13.407-2.976 13.407s8.439-.494 10.428 15.897c1.395 11.506-6.951 13.408-6.951 13.408s12.412 9.431 3.474 18.871c-8.939 9.434-33.373 18.169-59.596 7.448-26.22-10.718-31.288-42.212-28.305-53.136 2.983-10.924 6.457-16.888 6.457-23.84 0 0-7.45-14.896-17.877-25.823-10.433-10.927-2.485-29.796 12.413-26.816 14.896 2.973 23.525 15.596 27.995 38.443l1.96-1.275" fill="#FADDB9"/><path d="M105.476 248.35s.878 17.207 13.707 25.075c12.831 7.874 17.204 3.208 17.204 3.208s-10.788.587-20.117-15.162c-9.332-15.743-5.475-14.495-5.475-14.495l-5.319 1.374M279.265 243.977s-7.58 11.372-19.537 16.91c-11.951 5.544-20.412 5.838-23.036 5.544-2.623-.293-7.289-3.792-7.289-3.792s-11.955 16.33-25.365 22.159c-13.416 5.834-24.202 9.62-44.034-3.499 0 0 8.46 12.831 26.246 11.376 13.393-1.101 17.856-2.862 19.243-3.659.986-.297 12.539-6.839 18.078-12.674 5.541-5.834 5.541-8.165 5.541-8.165s3.79 2.627 15.163 1.465c11.374-1.168 24.202-7.293 29.746-13.712 5.541-6.415 5.244-11.953 5.244-11.953M209.285 237.558s4.039 5.179 16.622 1.754c9.619-2.624 13.409-8.458 13.409-8.458s-3.497 13.123-13.122 14.578c-9.619 1.461-16.909-7.874-16.909-7.874M129.099 193.532c-.522 1.042-.876 5.83-.876 5.83s-1.75-.581 9.619-3.498c11.374-2.916 20.703-7.58 20.703-7.58s-28.865 4.078-29.446 5.248M181.291 174.287s4.959-2.916 21.869-7c16.914-4.08 21.868-3.497 21.868-3.497l.879-3.207s-25.955 2.624-44.032 9.037l-.584 4.667M168.751 188.284c2.334-1.752 12.829-7.29 13.416-13.997 0 0-5.541 9.037-17.497 11.661l4.081 2.336M104.027 261.33s-.171.197-.424.547c-1.366 1.868-.748 9.218.424 10.823 4.415 6.054 8.158.725 8.158.725s-.873 3.501 2.044 5.25c2.913 1.75 7.578 3.792 7.578 3.792s-16.331 2.917-19.827-8.746M115.099 343.404s-2.334-18.364-6.704-27.116c-4.368-8.745 0-12.537 0-12.537s11.082 16.916 12.537 23.033c1.459 6.125 1.752 7.877 1.752 7.877l-7.585 8.743M94.401 388.308s1.456 18.662 22.449 28.289c20.992 9.62 30.616 10.788 42.571 8.455 11.957-2.333 25.078-10.204 25.078-10.204s-8.748 13.121-28.574 14.868c-19.827 1.752-54.821-.875-61.524-41.408M137.554 356.528s1.749-10.785 12.536-12.828c10.79-2.04 16.912-7.29 16.912-7.29l-.801 8.478s-14.36-2.937-28.647 11.64M145.719 381.894s10.496-12.538 18.662-15.449c8.165-2.917 13.703-2.917 13.703-2.917l-2.624 6.122-29.741 12.244M159.132 403.184s12.537-5.834 17.787-6.711c5.248-.872 8.745-7.87 8.745-7.87s-1.165 8.582-5.828 10.208c-4.669 1.617-20.704 4.373-20.704 4.373" fill="#F8CD9A"/><path d="M284.417 225.02s-6.221-20.993-13.217-29.546c-7.003-8.553.775-27.994 11.663-24.879 10.887 3.107 21.458 29.812 20.677 36.033l.939-3.885s7.66-23.821 12.598-33.704c6.996-13.997 15.548-22.549 23.326-17.884 7.778 4.666-6.997 40.431-6.997 40.431s7.645-20.753 16.33-31.879c5.566-7.13 11.471-7.266 16.329-5.443 12.442 4.663-17.111 44.319-17.111 44.319s11.92-19.365 19.441-26.435c7.606-7.15 14.738-8.97 20.996-3.889 12.44 10.111-24.107 43.547-24.107 43.547s19.441-20.996 25.605-20.453c14.245 1.252 19.577 11.39 1.989 18.87-17.59 7.481-45.69 35.759-45.69 35.759s-2.021-1.422-6.689-2.297c-4.662-.874-49.568-3.205-49.568-3.205s-2.815-11.669-6.514-15.46" fill="#FADDB9"/><path d="m290.931 240.48 38.781 2.913s11.955-3.5 19.533-5.541c7.584-2.043 14.29-7.873 14.29-7.873s-20.119 7.291-36.449 7.873c-16.321.583-37.326-2.918-37.326-2.918l1.171 5.546" fill="#F8CD9A"/><path d="M180.567 168.168c2.751 4.506-1.743 16.173-22.376 19.407-20.628 3.23-33.863 10.159-33.732 2.152 0 0-10.35-3.093-1.83-12.291 10.287-11.103 48.225-25.199 57.938-9.268M225.018 163.043c-1.465 5.865 6.455 10.43 9.436 10.926 2.979.496 11.917-2.978 1.986-12.415-9.934-9.434-10.426-2.483-11.422 1.489" fill="#EB8B2D"/><path d="M25.29 264.389s-4.08 11.375 6.417 14.87c10.496 3.496 26.824 3.208 26.824 3.208S25 279.838 25.29 264.389M44.538 233.771s-4.373 4.081-1.165 9.622c3.206 5.541 9.911 15.748 9.911 15.748s-14.581-8.458-13.994-16.916c.58-8.454 5.248-8.454 5.248-8.454M83.9 243.099l1.169 5.251s10.204-19.245 21.285-30.037c11.082-10.785 22.453-23.908 22.453-23.908s-21.869 19.245-28.286 25.08c-6.414 5.828-16.621 23.614-16.621 23.614M110.145 243.685s4.084 13.413 12.539 21.285c8.454 7.877 16.035 9.332 16.035 9.332s-1.749 4.667-9.62.291c-7.873-4.376-14.87-10.498-18.954-30.908" fill="#89492F"/><path d="M121.518 187.113s4.371 2.044 7.581 1.171c0 0-2.044 3.497 4.663 2.331 6.706-1.166 25.37-3.208 25.37-3.208s-27.994 7.291-30.325 6.998c-2.334-.292-4.348-4.678-4.348-4.678s-3.819-1.155-2.941-2.614M228.53 169.912s3.205 1.459 7.872.292c4.665-1.165 4.955-2.335 4.955-2.335s-2.623 9.624-12.827 2.043" fill="#89492F"/><path d="M180.709 175.16s-.585 2.626-16.039 7.583c-15.454 4.957-30.908 7.872-30.908 7.872s23.328-2.331 29.453-3.789c6.12-1.459 15.159-7.291 17.494-11.666" fill="#89492F"/><path d="M238.922 230.584s6.455-3.973 14.898-.993c8.447 2.979 9.437 12.413 15.889 11.92 6.464-.494 10.437-1.488 10.437-1.488s-1.989 10.425-13.909 17.377c-11.92 6.954-27.315 14.403-37.245 4.971l.117.048c-1.794 4.017-7.267 11.787-23.956 21.797-24.83 14.902-45.194-.493-48.668-6.455 0 0 5.46 1.493 11.918-4.965 6.458-6.455 10.663-21.555 23.84-29.297 13.174-7.744 20.361-2.482 20.361-2.482s8.053 6.458 13.59 4.415c5.541-2.039 12.337-6.373 12.728-14.848" fill="#EB8B2D"/><path d="M157.674 278.675s9.622 9.627 26.534 3.502c16.912-6.125 30.614-11.082 37.615-19.538 6.998-8.458 8.746-5.834 10.498-4.085 1.748 1.755 33.826.294 39.073-4.957 0 0-13.999 10.208-24.496 12.247-10.496 2.043-17.204-3.495-17.204-3.495s-6.996 11.66-21.286 19.244c-14.287 7.577-28.284 17.785-50.734-2.918" fill="#89492F"/><path d="M152.615 95.798s-.929 13.346 22.971 20.175c23.902 6.828 52.151 9.313 52.151 9.313l-2.407-8.27s-38.57-1.975-47.263-3.834c-8.692-1.867-21.106-8.693-25.452-17.384" fill="#CBCCCB"/><path d="M230.528 156.95s-3.414-21.111-7.138-28.25c-3.723-7.139-13.97-6.208-13.97-6.208l16.764-.931 8.38 37.871-4.036-2.482M35.588 170.294s8.693 4.039 17.696 1.553c9.001-2.484 12.103-5.278 13.967 1.552 1.863 6.832 18.936 63.637 18.936 63.637l-2.287 6.063s-13.856-48.59-17.269-56.352c-3.415-7.76-4.039-13.351-10.866-12.106-6.827 1.242-16.76.62-20.177-4.347" fill="#CBCCCB"/><path d="m73.148 198.542 12.726-7.138-11.796 14.589-1.242-8.382" fill="#CBCCCB"/><path d="M133.104 304.018c.789.737-6.804 1.832-5.757 5.234 1.045 3.402 8.375 11.516 8.375 11.516s-12.825-.784-12.825 2.616c0 3.4 3.145 8.377 3.145 8.377l-3.358 2.9-5.019-17.035 3.063-.626s-4.751-8.732-4.17-10.332c.584-1.603 12.668-10.038 12.668-10.038s.476 4.252 3.878 7.388M167.904 325.999s-8.633-6.277-16.224-9.423c-7.585-3.137-15.438-8.368-15.438-8.368s10.471 8.111 40.3 9.683c0 0-7.069 4.446-8.638 8.108M166.073 329.143s6.279 7.585 4.71 12.294c0 0 8.373 3.14 10.209 9.946 1.831 6.799 14.651 5.493 21.189 2.095 6.544-3.408 12.562-11.775 12.562-11.775l2.355.784s-1.378 7.273-9.42 12.295c-12.56 7.849-30.092 7.849-30.092 7.849s1.57-6.54-2.878-12.295c-4.446-5.759-8.507-5.448-8.507-5.448s1.209-6.441.801-8.478c-.403-2.034-2.235-4.131-2.235-4.131l1.306-3.136M208.725 336.991s8.897 1.834 16.747-2.358c7.849-4.185 14.39-13.08 14.39-13.08s-1.306 9.418-8.109 15.175c-6.804 5.759-18.056 7.062-23.028.263" fill="#9B1D23"/><path d="M239.602 323.646s2.093 8.899 10.463 11.251c8.377 2.359 31.932-1.571 31.932-1.571s-18.844 7.587-29.832 5.499c-10.994-2.097-14.132-8.377-14.132-8.377l1.569-6.802M204.277 332.018s-4.187-2.091-9.422-1.57c-5.231.523-8.369 5.759-7.586 7.85.786 2.095 2.878 5.238 2.878 5.238s-8.897-1.833-4.448-8.113c4.448-6.28 6.019-8.639 10.99-8.112 4.973.522 7.066 1.832 7.066 1.832l.522 2.875M242.48 320.768s7.591-4.71 9.943-5.496c2.354-.784 9.946 0 5.235 9.424 0 0 6.539-10.732-.526-10.732-7.067 0-10.729.787-17.007 6.277 0 0 .263 1.571 2.355.527M271.699 286.205s-1.743-2.593-7.502.551c-5.755 3.134-21.717 13.603-26.426 17.525-4.711 3.927-10.466 6.28-10.466 6.28h-11.254l-7.919 5.936-5.951-2.009s17.008-2.618 41.866-16.75c24.862-14.126 21.721-15.437 21.721-15.437s4.274.482 5.931 3.904M273.882 292.243s-1.834 5.238-6.54 5.495c0 0 4.712-1.046 8.899 1.313 0 0-.531-1.313-2.621-2.881l.262-3.927" fill="#9B1D23"/><path d="M96.205 342.219s3.151 4.883-1.128 14.211c-4.276 9.333-6.608 17.886-6.608 17.886l5.227-1.619s11.8-26.029 2.509-30.478M77.973 429.907s10.492 8.864 18.272 10.504c7.782 1.633 10.887 1.165 10.887 1.165s9.33 7.776 18.273 10.495c0 0-29.936 3.112-47.432-22.164M286.753 331.549s3.498 20.219 10.109 27.214c6.607 7 22.551 23.718 39.266 8.165 0 0 1.163 14.385-21.774 14.772-22.94.392-19.275-.754-19.275-.754s-4.526-33.454-15.715-45.12l7.389-4.277" fill="#CBCCCB"/><path d="M283.085 292.73c-.383-1.771-1.224-6.838-.609-14.834.774-10.105 3.504-15.94 3.504-15.94-6.616 10.495-19.692 19.032-19.692 19.032s2.189.024 4.906 3.522c2.155 2.754 3.326 5.986 3.732 7.239 2.717.587 5.437 1.597 8.159.981" fill="#82B0C1"/><path d="M283.25 293.453s-.069-.254-.165-.723c-2.722.616-5.442-.394-8.159-.981.108.333.158.53.158.53l-2.386 2.866 3.168 2.969c10.882-2.722 69.203 7.773 69.203 7.773l.764-1.612c-1.562-.835-62.583-10.822-62.583-10.822" fill="#CBCCCB"/><path d="M112.573 445.458s26.049 8.943 36.936.778c10.885-8.164 10.885-17.102 10.885-17.102l9.331-1.165s-2.72 8.162-5.831 11.66c0 0-2.334 10.501-16.721 12.832-14.383 2.33-30.323-.779-34.6-7.003M358.29 268.177c-.172-1.154-10.109 12.439-15.944 17.887-5.828 5.443 9.72 7.389 9.72 7.389s-3.112-5.056-1.168-9.722c1.949-4.667 8.551-7.776 7.392-15.554" fill="#82B0C1"/><path d="M199.195 363.179c-7.944.53-7.45 11.92-.498 11.92 6.953 0 7.947-12.414.498-11.92" fill="#FFDA1A"/><path d="M199.195 363.179c-7.944.53-7.45 11.92-.498 11.92 6.953 0 7.947-12.414.498-11.92z" fill-opacity="0" stroke="#303053" stroke-width="2.339" stroke-linecap="round" stroke-linejoin="round"/><path d="M213.596 426.744c-7.944.533-7.449 11.92-.497 11.92s7.944-12.413.497-11.92" fill="#FFDA1A"/><path d="M213.596 426.744c-7.944.533-7.449 11.92-.497 11.92s7.944-12.413.497-11.92z" fill-opacity="0" stroke="#303053" stroke-width="2.339" stroke-linecap="round" stroke-linejoin="round"/><path d="M270.708 416.32c-7.947.525-7.451 11.917-.494 11.917 6.95 0 7.943-12.42.494-11.917" fill="#FFDA1A"/><path d="M270.708 416.32c-7.947.525-7.451 11.917-.494 11.917 6.95 0 7.943-12.42.494-11.917z" fill-opacity="0" stroke="#303053" stroke-width="2.339" stroke-linecap="round" stroke-linejoin="round"/><path d="M256.306 346.296c-7.948.524-7.448 11.917-.497 11.917 6.952 0 7.942-12.414.497-11.917" fill="#FFDA1A"/><path d="M256.306 346.296c-7.948.524-7.448 11.917-.497 11.917 6.952 0 7.942-12.414.497-11.917z" fill-opacity="0" stroke="#303053" stroke-width="2.339" stroke-linecap="round" stroke-linejoin="round"/><path d="M291.414 422.135s-.773-28.769-16.33-59.098c0 0 5.056 14.389 8.947 33.436 3.89 19.054 3.109 25.662 3.109 25.662h4.274M177.89 364.983s17.104.393 25.659-4.663c8.552-5.052 15.162-12.831 17.108-14.385 1.945-1.558 12.829-10.496 19.438-7.386 6.608 3.111 26.438 5.828 29.937 3.111 3.504-2.723 8.164-5.834 8.164-5.834s-26.827 5.834-31.879 2.33c-5.056-3.495-8.284-7.708-8.284-7.708s-2.933 5.716-11.936 8.873l-8.999 3.166s.446 10.833-20.158 16.668c-12.107 3.419-19.354 3.476-19.354 3.476l.304 2.352" fill="#CBCCCB"/><path d="M178.08 317.705a109.65 109.65 0 0 1-8.188-.215c-47.79-2.984-40.226-27.309-40.226-27.309s-16.883 7.944-31.782-11.427c-14.899-19.365 2.483-30.785 12.911-31.778m130.613-76.919c2.221 3.858 4.521 8.89 6.452 15.334 5.96 19.863 5.96 38.241 5.96 38.241s13.407-8.938 26.819 0c13.407 8.938 15.396 30.295-4.96 49.66-15.649 14.88-41.547 34.738-74.323 41.801m-72.684-121.26s-1.486 37.247 5.965 53.143c7.445 15.889 5.459 15.889 2.48 16.881-2.981.994-4.966-1.985-4.966-1.985s12.415 9.931 5.96 13.905c-6.455 3.97-23.837-6.457-27.809-32.278m70.265-75.331c2.751 4.506-1.743 16.173-22.376 19.407-20.628 3.23-33.863 10.159-33.732 2.152 0 0-10.35-3.093-1.83-12.291 10.287-11.103 48.225-25.199 57.938-9.268zm44.451-5.125c-1.465 5.865 6.455 10.43 9.436 10.926 2.979.496 11.917-2.978 1.986-12.415-9.934-9.434-10.426-2.483-11.422 1.489z" fill-opacity="0" stroke="#303053" stroke-width="2.339" stroke-linecap="round" stroke-linejoin="round"/><path d="M159.954 256.351s-16.697-2.997-17.555-23.547c-.855-20.55 4.71-33.825 16.7-37.249 11.987-3.426 20.125 14.557 20.125 26.543 0 11.99-3.428 23.974-3.428 23.974s-8.136 3.428-15.842 10.279" fill="#FFFFFE"/><path d="M157.973 256.407s8.443.993 9.437-14.403c.993-15.393.291-23.31-6.458-31.282-6.745-7.979-15.889-4.472-17.877 4.466 0 0-2.316 12.749.02 22.954 2.333 10.208 12.265 17.286 14.878 18.265" fill="#303053"/><path d="M212.604 225.122s.992-10.928 13.902-12.916c12.914-1.983 15.894 12.916 11.423 22.85-4.469 9.93-16.886 15.392-29.3 2.976m31.198-7.917c2.056-.953 7.423-2.844 13.993-.524 8.447 2.979 9.437 12.413 15.889 11.92 6.464-.494 10.437-1.488 10.437-1.488s-1.989 10.425-13.909 17.377c-11.92 6.954-27.315 14.403-37.245 4.971m.993-2.982s0 9.931-24.832 24.827c-24.83 14.902-45.194-.493-48.668-6.455 0 0 5.46 1.493 11.918-4.965 6.458-6.455 10.663-21.555 23.84-29.297 8.212-4.829 14.096-4.604 17.365-3.746m30.796 33.557c-3.973 5.96-11.419 9.436-21.353 9.436-6.464 0-7.882-2.524-8.083-4.285" fill-opacity="0" stroke="#303053" stroke-width="2.339" stroke-linecap="round" stroke-linejoin="round"/><path d="M254.187 217.733c-7.944-2.98-17.283-2.664-17.283-2.664 2.98-6.458 11.425-17.878 11.425-17.878l2.941 4.503-10.203 10.788h12.536l.584 5.251" fill="#303053"/><path d="M254.187 217.733c-7.944-2.98-17.283-2.664-17.283-2.664 2.98-6.458 11.425-17.878 11.425-17.878l2.941 4.503-10.203 10.788h12.536l.584 5.251zm-140.829 38.519c-2.204-1.377-7.855-3.626-11.005 6.613-3.973 12.912 5.463 22.847 24.335 18.871m-10.924-10.926s-9.932 1.986-5.462 10.432m115.142-120.63c-4.005.385-28.394 2.888-44.358 8.609m-52.414 24.612s-26.117 23.051-33.667 32.632c-7.551 9.581-11.026 17.528-11.026 17.528s-17.382-63.57-22.844-68.039c-5.462-4.469-20.364 10.926-39.728-22.346-19.369-33.272-6.458-57.607 9.933-73C47.729 65.213 72.557 68.19 72.557 68.19s-4.477-19.081 30.294-36.252c40.224-19.865 54.626-.498 54.626-.498S175.854.652 217.569 17.038c41.716 16.392 47.181 36.253 49.658 60.588 2.482 24.334-14.397 41.221-46.678 39.234-32.28-1.986-57.111-1.49-68.035-20.361m72.619 20.761s6.835 26.915 9.819 42.804M73.051 207.243S112.568 154.4 154 139.208c44.697-16.388 73.887-8.958 73.887-8.958M113.479 309.368c2-1.552 3.67-3.217 4.924-4.985M81 234.556s-17.381-17.875-35.259-2.48c-17.879 15.39 7.448 26.817 7.448 26.817s-22.347-13.408-28.307 6.452c-5.959 19.867 34.267 17.384 34.267 17.384s-23.837-2.982-23.339 22.85c.284 14.78 22.646 18.826 44.386 15.816m135.387-9.367s-15.396 6.455-9.933 19.863c5.46 13.412 16.388 11.921 26.816 4.471 10.43-7.445 11.714-31.996-16.883-24.334zm17.875 0s10.431-15.889 23.838-14.402c13.412 1.492 28.808 12.913 39.236 8.444 10.432-4.469 11.423-5.959 11.423-5.959s-7.942 30.789-37.741 37.246c-29.803 6.455-32.285-7.944-32.285-7.944m19.367-3.978c3.129-6.664 7.471-13.08-5.462-10.918-8.938 1.487-12.417 6.949-12.417 6.949s7.743.285 10.927 1.989m-72.488 39.153c3.59-.09 7.403-.524 11.403-1.419 28.074-6.244 27.839-18.964 27.839-18.964m-8.966-25.728s-23.34-6.452-35.757 4.469c-3.557 3.137-5.772 7.166-7.618 11.265m39.898-2.818s-9.931-5.465-17.38 2.98c-7.45 8.441 2.979 11.419 2.979 11.419m15.396-11.921s-7.451 1.991-10.431 12.915m-65.993-48.176c-3.232 1.749-13.656 7.798-11.973 12.422 1.987 5.465 3.475 7.948 3.475 7.948s-1.525 0-3.321.378m147.837-34.649s2.982-1.487 6.455 3.476c3.475 4.963.999 8.94.999 8.94s3.475.994 4.466 7.449c.073.5.132.993.155 1.478m1.834 31.297s15.889 21.355 22.347 88.893m-36.256-83.925s20.815 40.584 21.805 81.304m-87.854-58.462c-7.944.53-7.45 11.92-.498 11.92 6.953 0 7.947-12.414.498-11.92zm14.401 63.565c-7.944.533-7.449 11.92-.497 11.92s7.944-12.413.497-11.92zm57.112-10.424c-7.947.525-7.451 11.917-.494 11.917 6.95 0 7.943-12.42.494-11.917zm-14.402-70.024c-7.948.524-7.448 11.917-.497 11.917 6.952 0 7.942-12.414.497-11.917zm-142.251 2.561s4.471-20.86 30.295-21.85c25.826-.996 22.846 11.423 21.851 17.881 0 0 9.932 1.487 11.421 11.914 1.494 10.433-2.976 13.407-2.976 13.407s8.439-.494 10.428 15.897c1.395 11.506-6.951 13.408-6.951 13.408s12.412 9.431 3.474 18.871c-8.939 9.434-33.373 18.169-59.596 7.448-26.22-10.718-31.288-42.212-28.305-53.136 2.983-10.924 6.457-16.888 6.457-23.84 0 0-7.45-14.896-17.877-25.823-10.433-10.927-2.485-29.796 12.413-26.816 14.896 2.973 23.476 16.092 27.949 38.939m43.563 9.731s-21.353-.994-30.788 14.893m7.448 23.84s12.413-7.947 31.785-13.412m3.477 29.305s-13.91.493-22.849 6.452m140.761-24.909s33.771 6.954 38.739-8.941c4.963-15.889 10.927-68.032 10.927-68.032m-71.819-11.579s37.549 5.62 53.941 8.102c16.385 2.484 22.841 6.455 25.82 3.477 2.982-2.982-.99-10.428-2.979-14.897-1.987-4.468 2.979-8.447 5.464-13.41 2.48-4.967 4.963-8.943.991-19.37-3.97-10.425-12.911-11.92-12.911-11.92l-53.637-3.972" fill-opacity="0" stroke="#303053" stroke-width="2.339" stroke-linecap="round" stroke-linejoin="round"/><path d="M284.417 225.02s-6.221-20.993-13.217-29.546c-7.003-8.553.775-27.994 11.663-24.879 10.887 3.107 21.458 29.812 20.677 36.033 0 0 11.982-5.713 23.642 9.838m-22.703-13.723s7.66-23.821 12.598-33.704c6.996-13.997 15.548-22.549 23.326-17.884 7.778 4.666-6.997 40.431-6.997 40.431s7.645-20.753 16.33-31.879c5.566-7.13 11.471-7.266 16.329-5.443 12.442 4.663-17.111 44.319-17.111 44.319s11.92-19.365 19.441-26.435c7.606-7.15 14.738-8.97 20.996-3.889 12.44 10.111-24.107 43.547-24.107 43.547s19.441-20.996 25.605-20.453c14.245 1.252 19.577 11.39 1.989 18.87-17.59 7.481-45.69 35.759-45.69 35.759M96.245 341.66s-23.328 24.881-23.328 66.089c0 41.213 40.436 48.207 57.54 44.322m-36.761-79.374s-8.337 1.619-10.668 9.395c-2.334 7.775-3.89 6.997-3.89 6.997s-.15 27.679 15.867 41.828c16.012 14.157 22.236 23.484 45.56 21.93 23.329-1.554 23.329-12.436 23.329-12.436s3.887-3.118 5.441-12.442m-97.48-289.437s16.802 6.241 25.924 39.848m30.25-26.403s-13.924-22.564-18.727-42.729m53.289 26.407c0-1.92-5.759-15.846-8.16-25.928" fill-opacity="0" stroke="#303053" stroke-width="2.339" stroke-linecap="round" stroke-linejoin="round"/><path d="M265.802 196.181c2.777 35.83 60.757 55.009 121.16 21.887 60.641-33.247 48.306-107.864-17.531-102.254-65.835 5.619-106.244 46.621-103.629 80.367" fill="#852526"/><path d="M319.314 135.649c-20.071 8.783-45.102 35.769-45.877 55.207-.773 19.437 18.659 43.544 79.312 28.77 60.654-14.773 80.087-73.091 46.655-87.866-33.435-14.772-55.207-6.997-80.09 3.889" fill="#F7C05C"/><path d="M374.52 134.093c14.781.777 25.663 3.111 28.772 19.439 3.112 16.331.319 18.396-7.77 33.437-8.097 15.041-24.113 24.106-48.213 25.66-24.107 1.555-40.437 8.552-51.319.776-10.884-7.773-17.106-15.55-14.775-28.77 2.33-13.217 13.212-27.214 24.881-35.768 11.663-8.552 38.101-16.327 45.877-16.327 7.773 0 22.547 1.553 22.547 1.553" fill="#FFF799"/><path d="M361.353 168.298c-8.398 8.406 10.084 16.324 14.889 10.563 4.801-5.762-7.209-18.244-14.889-10.563M333.606 190.928c-4.415 12.357 17.771 11.533 19.842 3.515 2.071-8.015-15.802-14.806-19.842-3.515M302.663 161.764c.899 10.769 17.252 2.582 16.072-4.135-1.188-6.714-16.894-5.706-16.072 4.135M303.813 188.253c-2.327 11.658 17.453 7.973 18.237.518.796-7.458-16.121-11.172-18.237-.518M355.274 144.104c-2.319 11.658 17.452 7.975 18.245.518.79-7.455-16.127-11.169-18.245-.518" fill="#C15461"/><path d="M338.905 150.819c-2.935.575-5.338-.687-5.338-.687s-1.234 6.293-4.946 4.202c-3.715-2.086-1.933-6.264.818-6.673 0 0-3.93-.342-1.628-3.585 2.314-3.243 7.254-3.415 8.177-1.862.922 1.552-.872 3.781-.872 3.781s3.43-3.87 4.81-2.176c1.382 1.695 1.912 6.426-1.021 7zm2.888-7.966c-1.841-2.078-4.957 1.138-4.957 1.138s.985-1.197-.251-3.099c-1.238-1.901-7.761-1.679-10.768 2.314-3.002 3.99 2.189 4.394 2.189 4.394-3.626.512-5.936 5.644-1.01 8.198 4.928 2.555 6.932-3.542 6.932-3.542s2.742-.094 6.599-.808c3.865-.715 3.111-6.523 1.266-8.595M298.382 184.821c-2.513.67-4.903-.433-4.903-.433s.088 6.046-3.64 4.209c-3.713-1.836-2.908-5.889-.521-6.394 0 0-3.583-.164-2.136-3.351 1.447-3.185 5.84-3.55 6.954-2.111 1.129 1.443-.056 3.639-.056 3.639s2.331-3.827 3.887-2.271c1.555 1.56 2.932 6.045.415 6.712zm1.078-7.712c-2.043-1.902-4.223 1.291-4.223 1.291s.654-1.179-.816-2.943c-1.463-1.76-7.254-1.278-9.194 2.648-1.925 3.924 2.796 4.098 2.796 4.098-3.157.639-4.243 5.626.651 7.854 4.893 2.233 5.531-3.659 5.531-3.659s2.434-.202 5.754-1.043c3.313-.84 1.541-6.341-.499-8.246M375.234 193.411c-2.263 1.287-4.86.833-4.86.833s1.632 5.823-2.441 4.994c-4.068-.825-4.317-4.953-2.141-6.048 0 0-3.504.759-2.917-2.694.591-3.452 4.745-4.926 6.192-3.816 1.456 1.106.872 3.534.872 3.534s1.272-4.299 3.18-3.188c1.901 1.109 4.37 5.098 2.115 6.385zm-.931-7.732c-2.454-1.321-3.755 2.327-3.755 2.327s.338-1.31-1.532-2.643c-1.865-1.329-7.349.619-8.216 4.907-.871 4.289 3.739 3.252 3.739 3.252-2.878 1.419-2.664 6.52 2.637 7.427 5.299.908 4.416-4.95 4.416-4.95s2.302-.817 5.292-2.476c2.996-1.657-.124-6.524-2.581-7.844M397.717 157.785c-2.424-.95-3.699-3.256-3.699-3.256s-3.504 4.928-5.42 1.247c-1.907-3.685 1.135-6.475 3.363-5.47 0 0-2.798-2.25.263-3.962 3.047-1.711 6.808.594 6.861 2.418.042 1.823-2.206 2.898-2.206 2.898s4.142-1.709 4.477.471c.33 2.177-1.219 6.604-3.639 5.654zm5.428-5.581c-.514-2.739-4.167-1.456-4.167-1.456s1.233-.564 1.092-2.854c-.138-2.286-5.095-5.329-8.975-3.309-3.887 2.023-.183 4.956-.183 4.956-2.909-1.352-6.751 2.021-4.119 6.717 2.621 4.692 6.627.325 6.627.325s2.077 1.276 5.247 2.563c3.174 1.287 5.002-4.198 4.478-6.942" fill="#15A748"/><path d="M265.802 196.181c2.777 35.83 60.757 55.009 121.16 21.887 60.641-33.247 48.306-107.864-17.531-102.254-65.835 5.619-106.244 46.621-103.629 80.367z" fill-opacity="0" stroke="#303053" stroke-width="2.339" stroke-linecap="round" stroke-linejoin="round"/><path d="M319.314 135.649c-20.071 8.783-45.102 35.769-45.877 55.207-.773 19.437 18.659 43.544 79.312 28.77 60.654-14.773 80.087-73.091 46.655-87.866-33.435-14.772-55.207-6.997-80.09 3.889z" fill-opacity="0" stroke="#303053" stroke-width=".992" stroke-linecap="round" stroke-linejoin="round"/><path d="M380.561 207.669s1.918-3.842-2.407-9.605c-4.317-5.759-67.208-57.61-67.208-57.61m-24.004 74.415s-5.281-8.644.962-13.926c6.232-5.28 55.683-35.044 70.572-47.527 14.882-12.484 35.046-22.564 39.851-21.603m15.358 36.485s-.962-7.681-10.077-7.681c-9.124 0-57.131 3.841-71.057 6.72-13.926 2.884-49.928 1.922-49.928 1.922m45.609 54.249s-3.84-7.68.479-22.085c4.326-14.4 25.446-76.333 25.446-76.333" fill-opacity="0" stroke="#58361F" stroke-width="1.949"/><path d="M351.567 154.547a2.94 2.94 0 0 1-2.938 2.939 2.937 2.937 0 1 1 0-5.874 2.938 2.938 0 0 1 2.938 2.935M311.908 173.934a2.936 2.936 0 0 1-2.932 2.937 2.938 2.938 0 0 1 0-5.874 2.937 2.937 0 0 1 2.932 2.937M300.457 204.187a2.937 2.937 0 1 1-5.873 0 2.937 2.937 0 0 1 5.873 0M357.147 204.187a2.936 2.936 0 1 1-5.871 0 2.929 2.929 0 0 1 2.932-2.936 2.934 2.934 0 0 1 2.939 2.936M380.942 151.612a2.94 2.94 0 0 1-5.88 0 2.94 2.94 0 0 1 5.88 0M349.509 135.752a2.935 2.935 0 0 1-5.871 0 2.937 2.937 0 0 1 2.935-2.94 2.94 2.94 0 0 1 2.936 2.94M400.911 164.828a2.938 2.938 0 0 1-2.94 2.937 2.934 2.934 0 0 1-2.931-2.937 2.936 2.936 0 1 1 5.871 0" fill="#99564B"/></g></svg>